<?xml version="1.0" encoding="utf-8"?>
<!-- Generator: Adobe Illustrator 16.0.0, SVG Export Plug-In . SVG Version: 6.00 Build 0)  -->
<!DOCTYPE svg PUBLIC "-//W3C//DTD SVG 1.1//EN" "http://www.w3.org/Graphics/SVG/1.1/DTD/svg11.dtd">
<svg version="1.1" id="Layer_1" xmlns="http://www.w3.org/2000/svg" xmlns:xlink="http://www.w3.org/1999/xlink" x="0px" y="0px"
	 width="296px" height="216.167px" viewBox="0 175.833 296 216.167" enable-background="new 0 175.833 296 216.167"
	 xml:space="preserve">
<g>
	<path fill-rule="evenodd" clip-rule="evenodd" d="M290.576,231.312l0.129-26.896c-15.789-0.275-58.847-0.669-74.634-0.377
		c-7.818,0.142-14.921-1.581-19.451-7.96c-7.117-10.02-24.385-16.995-41.237-16.844c-21.849,0.197-40.079-1.077-57.352,19.996
		c-1.102,1.344-3.051,2.527-4.824,3.004c-6.1,1.643-13.926,5.354-18.139-0.682c-9.871-14.144-29.142-12.024-37.429,2.621
		c-0.474,0.84-28.234,0.791-30.345,1.157l0.096,27.368c-0.127,42.749-0.127,85.507-0.002,128.259l-0.094,28.1
		c37.36,0.108,103.287-0.104,140.648-0.105c38.519,0,104.245,0.209,142.762,0.04l-0.125-27.11
		C290.743,318.358,290.747,274.834,290.576,231.312z M278.463,360.771l0.078,15.938c-37.741,0.066-92.619,0.113-130.361,0.113
		c-36.97,0-73.942,0.031-110.913-0.019l-17.744-0.095c-0.045-41.592-0.418-100.758,0.012-142.348l-0.012-17.659
		c12.708-0.101,61.872-0.203,61.872-0.203s19.895-1.779,33.429-15.311c9.444-9.443,25.608-10.286,25.608-10.286
		c4.54,0.605,13.802,0.842,18.356,0.29c0,0,19.308,3.15,32.318,16.362c8.37,8.499,23.691,9.438,23.691,9.438s47.81-0.183,63.599,0
		l0.066,15.536C278.565,275.274,278.565,318.025,278.463,360.771z"/>
	<path fill-rule="evenodd" clip-rule="evenodd" fill="#010101" d="M216.594,297.044c-0.172,37.289-30.611,67.636-67.744,67.537
		c-37.188-0.098-67.397-30.465-67.454-67.809c-0.057-37.978,30.334-68.197,68.305-67.918
		C186.958,229.13,216.767,259.518,216.594,297.044z"/>
	<path fill-rule="evenodd" clip-rule="evenodd" fill="#FEFEFE" d="M148.651,351.863c-31.043-0.146-55.506-25.084-55.095-56.166
		c0.4-30.147,25.686-54.923,55.788-54.658c30.703,0.271,55.529,25.717,55.126,56.504C204.07,327.917,179.315,352.01,148.651,351.863
		z"/>
	<path fill-rule="evenodd" clip-rule="evenodd" fill="#020202" d="M179.594,296.693c-0.019,17.083-13.776,30.939-30.67,30.885
		c-16.957-0.054-30.561-13.869-30.529-31.009c0.031-17.212,13.537-30.744,30.656-30.717
		C166.155,265.875,179.611,279.464,179.594,296.693z"/>
	<path fill-rule="evenodd" clip-rule="evenodd" fill="#FDFDFD" d="M167.475,297.015c-0.205,10.017-8.399,17.881-18.584,17.833
		c-10.246-0.048-18.254-7.93-18.341-18.048c-0.088-10.282,8.992-19.17,19.132-18.729
		C159.462,278.495,167.676,287.24,167.475,297.015z"/>
</g>
<rect x="36.868" y="234.238" fill-rule="evenodd" clip-rule="evenodd" fill="#040404" width="32.377" height="20.814"/>
</svg>
