<?xml version="1.0" encoding="utf-8"?>
<!-- Generator: Adobe Illustrator 16.0.0, SVG Export Plug-In . SVG Version: 6.00 Build 0)  -->
<!DOCTYPE svg PUBLIC "-//W3C//DTD SVG 1.1//EN" "http://www.w3.org/Graphics/SVG/1.1/DTD/svg11.dtd">
<svg version="1.1" id="Layer_1" xmlns="http://www.w3.org/2000/svg" xmlns:xlink="http://www.w3.org/1999/xlink" x="0px" y="0px"
	 width="387.667px" height="392px" viewBox="0 0 387.667 392" enable-background="new 0 0 387.667 392" xml:space="preserve">
<g>
	<path fill-rule="evenodd" clip-rule="evenodd" d="M312.667,76.656c0,0-26.732-0.103-34.175-6.801
		c-8.873-7.988-11.46-22.633-27.337-22.725c-0.519-0.003-0.911-0.095-1.414-0.014c-7.563,1.188-10.141-2.43-12.398-9.57
		c-6.297-19.917-18.708-27.687-41.27-27.753c-23.496-0.069-35.862,7.683-42.542,28.24c-2.052,6.313-3.809,9.723-11.19,9.211
		C128.71,46.3,119.4,53,115.561,65.977c-1.58,5.344-4.562,5.597-8.947,6.076l-29.141,0.347
		c-0.047,40.358,0.036,113.046,0.036,153.403c0.001,42.43-0.102,84.856,0.045,127.284l-0.079,29.776
		c59.501,0.155,176.792,0.243,236.296,0.073l-0.646-28.788c0.148-84.339-0.459-168.678-0.459-253.017
		C312.667,95.378,312.667,76.656,312.667,76.656z M144.798,59.605c12.558,1.129,20.929,0.391,20.711-16.743
		c-0.187-14.596,12.515-21.036,32.545-20.632c16.878,0.339,28.207,7.866,27.993,22.382c-0.209,14.344,5.995,15.578,17.521,15.146
		c17.61-0.657,21.648,4.67,20.516,22.262c-0.664,10.307-5.785,14.854-15.813,14.814c-17.589-0.071-35.18-0.02-52.771-0.016
		c-17.073,0.003-34.151-0.251-51.219,0.088c-12.847,0.253-17.12-6.105-17.23-18.222C126.937,66.02,131.01,58.363,144.798,59.605z
		 M301.042,370.418c-57.423-0.487-134.189-0.272-191.615,0.11l-19.823-0.127c0.33-82.777,0.372-184.436,0.289-267.216l-0.188-16.292
		c10.238-1.723,24.906-0.418,28.351,8.847c3.548,9.544,12.313,13.478,22.486,13.485c36.734,0.025,73.467,0.055,110.201-0.021
		c10.822-0.024,19.729-4.584,23.117-14.944c2.853-8.72,18.389-9.593,26.576-8.076l0.106,15.574
		c-0.134,36.734-0.875,73.467-0.875,110.201c0,5.688,0,11.38,0,17.073c0,40.354,0.466,80.711,1.015,121.063L301.042,370.418z"/>
	<path fill-rule="evenodd" clip-rule="evenodd" d="M201.349,52.983c-0.168,3.407-1.961,5.649-5.383,5.899
		c-3.482,0.254-5.688-1.878-5.95-5.252c-0.271-3.473,1.872-5.682,5.245-5.972C198.782,47.354,200.653,49.583,201.349,52.983z"/>
</g>
<g>
	<path d="M163.667,212h-40v-39h40V212z M134.667,202h19v-20h-19V202z"/>
</g>
<g>
	<path d="M163.667,263h-40v-38h40V263z M134.667,253h19v-19h-19V253z"/>
</g>
<g>
	<path d="M163.667,316h-40v-39h40V316z M134.667,305h19v-19h-19V305z"/>
</g>
<g>
	<rect x="179.667" y="186" width="94" height="16"/>
</g>
<g>
	<rect x="179.667" y="238" width="94" height="15"/>
</g>
<g>
	<rect x="179.667" y="290" width="94" height="15"/>
</g>
</svg>
