<?xml version="1.0" encoding="utf-8"?>
<!-- Generator: Adobe Illustrator 16.0.0, SVG Export Plug-In . SVG Version: 6.00 Build 0)  -->
<!DOCTYPE svg PUBLIC "-//W3C//DTD SVG 1.1//EN" "http://www.w3.org/Graphics/SVG/1.1/DTD/svg11.dtd">
<svg version="1.1" id="Layer_1" xmlns="http://www.w3.org/2000/svg" xmlns:xlink="http://www.w3.org/1999/xlink" x="0px" y="0px"
	 width="480px" height="155px" viewBox="0 0 480 155" enable-background="new 0 0 480 155" xml:space="preserve">
<g>
	<path fill-rule="evenodd" clip-rule="evenodd" fill="#20A2DC" d="M47.561,38.002l0.402-2.778l1.134-8.669
		c34.333,0,78.255-0.027,112.588,0.085c1.833,0.006,5.802-0.085,5.802-0.085l-1.134,5.892c-24.774,0.016-54.505,0.163-79.276-0.115
		c-5.08-0.057-6.478,1.554-7.228,6.236c-2.334,14.593-5.333,29.085-8.037,43.624c-0.955,5.128-3.368,10.58,1.995,14.794
		c6.233,4.897,13.437,6.965,21.337,5.242c5.142-1.122,9.59-3.68,10.659-9.291c1.114-5.845-2.782-9.099-7.246-11.836
		c-2.967-1.819-6.016-3.508-9.016-5.276c-13.695-8.075-14.549-24.483-1.651-33.887c8.702-6.343,18.327-6.818,28.29-3.382
		l4.734,1.728l-6.329,4.844c-3.427-1.662-8.092-2.227-11.823-1.837c-5.178,0.541-8.522,3.266-10.133,8.139
		c-1.573,4.763,0.544,8.262,4.158,10.914c3.72,2.731,7.686,5.226,11.798,7.359c16.992,8.812,11.019,29.571-1.007,35.727
		c-12.414,6.355-34.697,3.286-44.294-6.515c-4.642-4.74-6.052-10.55-4.899-16.866c2.656-14.552,5.986-28.388,8.64-42.94
		c0,0,1.5-5.734-1.353-6.338c-3.512-0.744-9.422-0.688-11.623,2.848C54.049,35.616,50.3,36.907,47.561,38.002z"/>
	<path fill-rule="evenodd" clip-rule="evenodd" fill="#FFFFFF" d="M53.366,39.367c-3.682,20.683-7.314,41.976-11.103,62.439
		c-2.054,11.086-2.241,10.911,9.663,10.905c33.163-0.018,66.327,0.037,99.49,0.232c3.823,0.022,5.373-0.911,6.002-4.814
		c4.165-25.833,9.249-55.786,13.581-81.593h6.119l-0.849,4.432c-4.667,28.066-9.505,56.105-14.247,84.16l-0.612,3.66
		c-39.993-0.12-88.15-0.095-128.144,0l0.729-4.088c4.307-23.125,9.052-50.107,13.027-73.29L53.366,39.367z"/>
	<path fill-rule="evenodd" clip-rule="evenodd" fill="#FFFFFF" d="M147.506,46.611c0,0-0.717-0.229-4.501-1.152
		c-5.376-1.311-10.499-1.154-14.833,2.622c-5.004,4.36-4.836,11.675,0.622,15.843c3.807,2.909,8.028,5.356,12.25,7.69
		c7.336,4.055,11.265,10.018,10.339,18.202c-0.983,8.69-5.445,15.448-14.188,18.571c-9.859,3.521-19.824,3.064-29.952-0.416
		l7.781-4.923c1.916,0.638,8.387,1.688,10.5,1.46c6.426-0.694,11.763-4.505,12.793-9.272c1.384-6.414-2.9-9.752-7.713-12.668
		c-2.478-1.501-4.944-3.046-7.543-4.325c-8.078-3.972-12.673-9.912-11.583-19.08c1.12-9.414,6.668-15.604,15.5-18.953
		c6.354-2.41,19.563-1.114,26.131,0.44L147.506,46.611z"/>
</g>
<g>
	<path fill="#FFFDFD" d="M195.177,62.739h2.304V43.695h-5.736v3.809h-3.398v-6.455h22.413v6.455h-3.398v-3.809h-6.631v19.043h2.586
		v2.776h-8.14V62.739z"/>
	<path fill="#FFFDFD" d="M231.466,41.049h8.156v2.776h-2.387v18.914h2.387v2.776h-8.156v-2.776h2.52v-8.795h-14.539v8.795h2.52
		v2.776h-8.156v-2.776h2.387V43.825h-2.387v-2.776h8.156v2.776h-2.52v7.407h14.539v-7.407h-2.52V41.049z"/>
	<path fill="#FFFDFD" d="M244.364,41.049h18.003v6.923h-3.398v-4.131H250v7.827h7.543v2.776H250v8.295h8.969v-4.131h3.398v6.907
		h-18.003v-2.776h2.387V43.841h-2.387V41.049z"/>
	<path fill="#FFFDFD" d="M278.249,62.739h2.305V43.695h-5.736v3.809h-3.398v-6.455h22.413v6.455h-3.398v-3.809h-6.631v19.043h2.586
		v2.776h-8.14V62.739z"/>
	<path fill="#FFFDFD" d="M307.758,65.999c-1.735,0-3.321-0.315-4.758-0.944c-1.438-0.629-2.719-1.525-3.847-2.687
		c-1.127-1.162-1.983-2.539-2.569-4.131s-0.879-3.244-0.879-4.955c0-1.765,0.296-3.421,0.887-4.971
		c0.592-1.549,1.421-2.897,2.487-4.043c1.066-1.146,2.337-2.049,3.813-2.711s3.098-0.993,4.866-0.993
		c1.778,0,3.409,0.331,4.89,0.993c1.481,0.662,2.752,1.565,3.813,2.711c1.061,1.146,1.884,2.494,2.47,4.043s0.879,3.206,0.879,4.971
		s-0.296,3.419-0.887,4.962c-0.592,1.544-1.421,2.892-2.487,4.043s-2.337,2.058-3.813,2.719S309.525,65.999,307.758,65.999z
		 M307.758,62.997c1.314,0,2.505-0.264,3.572-0.791c1.066-0.527,1.976-1.234,2.727-2.122c0.752-0.888,1.332-1.917,1.741-3.09
		c0.408-1.173,0.613-2.41,0.613-3.712c0-1.334-0.224-2.623-0.672-3.865c-0.447-1.243-1.072-2.294-1.873-3.155
		c-0.802-0.86-1.732-1.525-2.793-1.993c-1.062-0.468-2.167-0.702-3.315-0.702c-1.315,0-2.51,0.264-3.581,0.791
		c-1.072,0.527-1.984,1.235-2.735,2.123c-0.752,0.887-1.332,1.92-1.741,3.098c-0.408,1.178-0.613,2.413-0.613,3.704
		c0,1.506,0.227,2.848,0.68,4.026s1.053,2.157,1.799,2.938c0.746,0.78,1.636,1.434,2.669,1.96
		C305.268,62.733,306.442,62.997,307.758,62.997z"/>
	<path fill="#FFFDFD" d="M323.357,41.049h10.162c1.127,0,2.163,0.143,3.107,0.428c0.945,0.285,1.763,0.705,2.454,1.259
		c0.69,0.554,1.227,1.245,1.608,2.074c0.381,0.829,0.571,1.781,0.571,2.856c0,0.893-0.188,1.735-0.563,2.525
		c-0.376,0.791-0.906,1.482-1.592,2.074c-0.685,0.592-1.506,1.06-2.462,1.404c-0.956,0.345-2.02,0.517-3.19,0.517h-4.46v8.553h2.521
		v2.776h-8.156v-2.776h2.387V43.841h-2.387V41.049z M328.993,43.841v7.698h4.526c0.63,0,1.207-0.083,1.732-0.25
		c0.524-0.167,0.978-0.412,1.359-0.734c0.381-0.323,0.68-0.726,0.895-1.21c0.216-0.484,0.323-1.043,0.323-1.678
		c0-1.205-0.376-2.144-1.127-2.816c-0.752-0.672-1.951-1.008-3.598-1.008H328.993z"/>
	<path fill="#FFFDFD" d="M364.221,45.567c-0.354-0.473-0.743-0.836-1.168-1.089c-0.426-0.252-0.893-0.446-1.401-0.581
		c-0.509-0.134-1.017-0.202-1.525-0.202c-0.84,0-1.574,0.094-2.204,0.283c-0.63,0.188-1.152,0.443-1.567,0.766
		c-0.414,0.323-0.727,0.7-0.937,1.13c-0.21,0.431-0.314,0.882-0.314,1.355c0,0.71,0.13,1.283,0.39,1.719
		c0.259,0.436,0.588,0.786,0.986,1.049c0.397,0.264,0.837,0.471,1.317,0.621c0.481,0.151,0.942,0.301,1.385,0.452l3.349,1.065
		c1.006,0.313,1.893,0.667,2.66,1.065c0.769,0.398,1.412,0.869,1.932,1.412s0.914,1.17,1.186,1.88
		c0.271,0.71,0.406,1.533,0.406,2.469c0,1.011-0.213,1.947-0.639,2.808s-1.02,1.608-1.782,2.243
		c-0.763,0.635-1.672,1.132-2.727,1.493c-1.056,0.36-2.213,0.541-3.474,0.541c-1.293,0-2.397-0.143-3.315-0.428
		c-0.917-0.285-1.688-0.667-2.313-1.146c-0.624-0.479-1.124-1.025-1.5-1.638s-0.669-1.243-0.879-1.888h-1.26v-2.776h4.178
		c0,1.194,0.13,2.039,0.39,2.534c0.26,0.495,0.621,0.906,1.086,1.234c0.464,0.328,1.017,0.576,1.657,0.742
		c0.642,0.167,1.349,0.25,2.122,0.25c0.752,0,1.429-0.086,2.031-0.258c0.602-0.172,1.116-0.422,1.541-0.75
		c0.426-0.328,0.752-0.726,0.979-1.194c0.227-0.468,0.34-0.998,0.34-1.589c0-0.656-0.141-1.213-0.423-1.67
		c-0.281-0.458-0.644-0.847-1.086-1.17c-0.442-0.323-0.926-0.586-1.45-0.791c-0.525-0.204-1.031-0.382-1.517-0.533l-3.631-1
		c-0.796-0.236-1.522-0.538-2.18-0.904c-0.658-0.366-1.222-0.812-1.691-1.339c-0.47-0.527-0.832-1.143-1.086-1.848
		c-0.254-0.704-0.381-1.52-0.381-2.445c0-0.936,0.188-1.813,0.563-2.63c0.376-0.818,0.929-1.533,1.657-2.146
		c0.729-0.613,1.622-1.095,2.678-1.444s2.263-0.524,3.622-0.524c0.896,0,1.722,0.102,2.479,0.306
		c0.757,0.205,1.442,0.493,2.056,0.864s1.155,0.818,1.625,1.339c0.47,0.522,0.864,1.095,1.185,1.719h1.244v2.776h-4.062
		C364.752,46.751,364.574,46.041,364.221,45.567z"/>
	<path fill="#FFFDFD" d="M389.585,41.049h8.156v2.776h-2.388v18.914h2.388v2.776h-8.156v-2.776h2.52v-8.795h-14.539v8.795h2.521
		v2.776h-8.156v-2.776h2.387V43.825h-2.387v-2.776h8.156v2.776h-2.521v7.407h14.539v-7.407h-2.52V41.049z"/>
	<path fill="#FFFDFD" d="M402.482,41.049h18.003v6.923h-3.398v-4.131h-8.969v7.827h7.543v2.776h-7.543v8.295h8.969v-4.131h3.398
		v6.907h-18.003v-2.776h2.387V43.841h-2.387V41.049z"/>
	<path fill="#FFFDFD" d="M423.802,41.049h8.156v2.792h-2.521v18.898h8.67c0.177,0,0.354-0.041,0.531-0.121s0.337-0.186,0.48-0.314
		c0.144-0.129,0.26-0.277,0.348-0.444c0.089-0.167,0.133-0.336,0.133-0.508v-3.083h3.15v7.246h-18.948v-2.776h2.387V43.841h-2.387
		V41.049z"/>
	<path fill="#FFFDFD" d="M445.286,41.049h18.003v6.923h-3.398v-4.131h-8.969V51.7h8.638v2.711h-8.638v8.328h2.521v2.776h-8.156
		v-2.776h2.387V43.841h-2.387V41.049z"/>
	<path fill="#FFFDFD" d="M194.962,85.229c-0.354-0.473-0.744-0.836-1.169-1.089c-0.425-0.252-0.893-0.446-1.401-0.581
		c-0.508-0.134-1.017-0.202-1.525-0.202c-0.84,0-1.575,0.094-2.205,0.283c-0.63,0.188-1.152,0.443-1.566,0.766
		c-0.415,0.323-0.727,0.7-0.937,1.13c-0.21,0.431-0.315,0.882-0.315,1.355c0,0.71,0.129,1.283,0.389,1.719
		c0.26,0.436,0.589,0.786,0.986,1.049c0.398,0.264,0.837,0.471,1.318,0.621c0.48,0.151,0.942,0.301,1.384,0.452l3.349,1.065
		c1.005,0.313,1.892,0.667,2.661,1.065c0.768,0.398,1.412,0.869,1.931,1.412s0.915,1.17,1.186,1.88
		c0.271,0.71,0.406,1.533,0.406,2.469c0,1.011-0.213,1.947-0.638,2.808s-1.02,1.608-1.782,2.243
		c-0.763,0.635-1.672,1.132-2.727,1.493c-1.056,0.36-2.213,0.541-3.473,0.541c-1.293,0-2.398-0.143-3.315-0.428
		c-0.917-0.285-1.688-0.667-2.313-1.146c-0.625-0.479-1.125-1.025-1.5-1.638c-0.376-0.613-0.669-1.243-0.879-1.888h-1.26v-2.776
		h4.178c0,1.194,0.13,2.039,0.39,2.534c0.259,0.495,0.622,0.906,1.085,1.234c0.464,0.328,1.017,0.576,1.658,0.742
		c0.641,0.167,1.348,0.25,2.122,0.25c0.751,0,1.428-0.086,2.031-0.258c0.603-0.172,1.116-0.422,1.542-0.75
		c0.425-0.328,0.751-0.726,0.978-1.194c0.227-0.468,0.34-0.998,0.34-1.589c0-0.656-0.141-1.213-0.423-1.67s-0.644-0.847-1.086-1.17
		c-0.442-0.323-0.926-0.586-1.45-0.791c-0.525-0.204-1.031-0.382-1.517-0.533l-3.63-1c-0.796-0.236-1.522-0.538-2.18-0.904
		s-1.221-0.812-1.691-1.339c-0.47-0.527-0.832-1.143-1.086-1.848c-0.254-0.704-0.381-1.52-0.381-2.445
		c0-0.936,0.188-1.813,0.563-2.63c0.375-0.818,0.928-1.533,1.658-2.146s1.622-1.095,2.677-1.444c1.055-0.35,2.263-0.524,3.622-0.524
		c0.896,0,1.722,0.102,2.479,0.306c0.757,0.205,1.442,0.493,2.056,0.864s1.155,0.818,1.625,1.339
		c0.47,0.522,0.865,1.095,1.186,1.719h1.243v2.776h-4.062C195.492,86.413,195.315,85.703,194.962,85.229z"/>
	<path fill="#FFFDFD" d="M202.67,80.711h10.162c1.127,0,2.164,0.143,3.108,0.428s1.763,0.705,2.454,1.259
		c0.69,0.554,1.227,1.245,1.608,2.074s0.572,1.781,0.572,2.856c0,0.893-0.188,1.735-0.563,2.525
		c-0.376,0.791-0.906,1.482-1.591,2.074c-0.686,0.592-1.506,1.06-2.462,1.404c-0.956,0.345-2.02,0.517-3.191,0.517h-4.459v8.553
		h2.52v2.776h-8.156v-2.776h2.387V83.503h-2.387V80.711z M208.307,83.503v7.698h4.526c0.63,0,1.208-0.083,1.732-0.25
		c0.525-0.167,0.978-0.412,1.359-0.734s0.68-0.726,0.895-1.21c0.216-0.484,0.323-1.043,0.323-1.678c0-1.205-0.375-2.144-1.127-2.816
		c-0.752-0.672-1.951-1.008-3.598-1.008H208.307z"/>
	<path fill="#FFFDFD" d="M223.757,80.711h18.003v6.923h-3.398v-4.131h-8.969v7.827h7.543v2.776h-7.543v8.295h8.969V98.27h3.398
		v6.907h-18.003v-2.776h2.387V83.503h-2.387V80.711z"/>
	<path fill="#FFFDFD" d="M262.914,87.166c-0.74-1.227-1.722-2.189-2.942-2.889c-1.222-0.699-2.583-1.049-4.086-1.049
		c-1.282,0-2.454,0.264-3.515,0.791c-1.062,0.527-1.971,1.235-2.728,2.123c-0.757,0.887-1.346,1.915-1.766,3.082
		c-0.42,1.167-0.63,2.397-0.63,3.688c0,1.528,0.232,2.88,0.696,4.059c0.465,1.178,1.069,2.157,1.815,2.938
		c0.746,0.78,1.633,1.431,2.661,1.953c1.027,0.522,2.183,0.783,3.465,0.783c1.746,0,3.266-0.412,4.559-1.235
		c1.293-0.823,2.398-2.176,3.315-4.059l2.918,1.339c-0.42,1.162-1.133,2.284-2.139,3.365c-1.006,1.081-2.246,1.953-3.722,2.614
		s-3.108,0.993-4.898,0.993c-1.714,0-3.288-0.315-4.725-0.944c-1.438-0.629-2.717-1.525-3.838-2.687
		c-1.122-1.162-1.979-2.539-2.57-4.131c-0.591-1.592-0.887-3.254-0.887-4.987c0-1.743,0.296-3.389,0.887-4.938
		c0.592-1.549,1.421-2.897,2.487-4.043c1.066-1.146,2.337-2.049,3.813-2.711s3.075-0.993,4.8-0.993c1.536,0,2.862,0.212,3.979,0.638
		c1.116,0.425,2.063,0.931,2.843,1.517s1.45,1.224,2.015,1.912h1.757v2.873H262.914z"/>
	<path fill="#FFFDFD" d="M270.093,80.711h8.023v2.792h-2.388v18.898h2.388v2.776h-8.023v-2.776h2.387V83.503h-2.387V80.711z"/>
	<path fill="#FFFDFD" d="M297.728,102.401h2.089l-1.99-5.552h-9.664l-1.939,5.552h2.586v2.776h-8.156v-2.776h2.188l7.824-21.69
		h4.891l7.808,21.69h2.521v2.776h-8.156V102.401z M289.106,94.17h7.759l-3.912-10.942L289.106,94.17z"/>
	<path fill="#FFFDFD" d="M308.42,80.711h8.156v2.792h-2.521v18.898h8.67c0.177,0,0.354-0.041,0.531-0.121s0.337-0.186,0.48-0.314
		c0.144-0.129,0.26-0.277,0.348-0.444c0.089-0.167,0.133-0.336,0.133-0.508v-3.083h3.15v7.246H308.42v-2.776h2.387V83.503h-2.387
		V80.711z"/>
	<path fill="#FFFDFD" d="M329.904,80.711h8.023v2.792h-2.388v18.898h2.388v2.776h-8.023v-2.776h2.387V83.503h-2.387V80.711z"/>
	<path fill="#FFFDFD" d="M355.019,85.229c-0.354-0.473-0.743-0.836-1.168-1.089c-0.426-0.252-0.893-0.446-1.401-0.581
		c-0.509-0.134-1.017-0.202-1.525-0.202c-0.84,0-1.574,0.094-2.204,0.283c-0.63,0.188-1.152,0.443-1.567,0.766
		c-0.414,0.323-0.727,0.7-0.937,1.13c-0.21,0.431-0.314,0.882-0.314,1.355c0,0.71,0.13,1.283,0.39,1.719
		c0.259,0.436,0.588,0.786,0.986,1.049c0.397,0.264,0.837,0.471,1.317,0.621c0.481,0.151,0.942,0.301,1.385,0.452l3.349,1.065
		c1.006,0.313,1.893,0.667,2.66,1.065c0.769,0.398,1.412,0.869,1.932,1.412s0.914,1.17,1.186,1.88
		c0.271,0.71,0.406,1.533,0.406,2.469c0,1.011-0.213,1.947-0.639,2.808s-1.02,1.608-1.782,2.243
		c-0.763,0.635-1.672,1.132-2.727,1.493c-1.056,0.36-2.213,0.541-3.474,0.541c-1.293,0-2.397-0.143-3.315-0.428
		c-0.917-0.285-1.688-0.667-2.313-1.146c-0.624-0.479-1.124-1.025-1.5-1.638s-0.669-1.243-0.879-1.888h-1.26v-2.776h4.178
		c0,1.194,0.13,2.039,0.39,2.534c0.26,0.495,0.621,0.906,1.086,1.234c0.464,0.328,1.017,0.576,1.657,0.742
		c0.642,0.167,1.349,0.25,2.122,0.25c0.752,0,1.429-0.086,2.031-0.258c0.602-0.172,1.116-0.422,1.541-0.75
		c0.426-0.328,0.752-0.726,0.979-1.194c0.227-0.468,0.34-0.998,0.34-1.589c0-0.656-0.141-1.213-0.423-1.67
		c-0.281-0.458-0.644-0.847-1.086-1.17c-0.442-0.323-0.926-0.586-1.45-0.791c-0.525-0.204-1.031-0.382-1.517-0.533l-3.631-1
		c-0.796-0.236-1.522-0.538-2.18-0.904c-0.658-0.366-1.222-0.812-1.691-1.339c-0.47-0.527-0.832-1.143-1.086-1.848
		c-0.254-0.704-0.381-1.52-0.381-2.445c0-0.936,0.188-1.813,0.563-2.63c0.376-0.818,0.929-1.533,1.657-2.146
		c0.729-0.613,1.622-1.095,2.678-1.444s2.263-0.524,3.622-0.524c0.896,0,1.722,0.102,2.479,0.306
		c0.757,0.205,1.442,0.493,2.056,0.864s1.155,0.818,1.625,1.339c0.47,0.522,0.864,1.095,1.185,1.719h1.244v2.776h-4.062
		C355.55,86.413,355.372,85.703,355.019,85.229z"/>
	<path fill="#FFFDFD" d="M367.866,102.401h2.305V83.357h-5.736v3.809h-3.398v-6.455h22.413v6.455h-3.398v-3.809h-6.631v19.043h2.586
		v2.776h-8.14V102.401z"/>
	<path fill="#FFFDFD" d="M398.85,85.229c-0.354-0.473-0.743-0.836-1.168-1.089c-0.426-0.252-0.893-0.446-1.401-0.581
		c-0.509-0.134-1.017-0.202-1.525-0.202c-0.84,0-1.574,0.094-2.204,0.283c-0.63,0.188-1.152,0.443-1.567,0.766
		c-0.414,0.323-0.727,0.7-0.937,1.13c-0.21,0.431-0.314,0.882-0.314,1.355c0,0.71,0.13,1.283,0.39,1.719
		c0.259,0.436,0.588,0.786,0.986,1.049c0.397,0.264,0.837,0.471,1.317,0.621c0.481,0.151,0.942,0.301,1.385,0.452l3.349,1.065
		c1.006,0.313,1.893,0.667,2.66,1.065c0.769,0.398,1.412,0.869,1.932,1.412s0.914,1.17,1.186,1.88
		c0.271,0.71,0.406,1.533,0.406,2.469c0,1.011-0.213,1.947-0.639,2.808s-1.02,1.608-1.782,2.243
		c-0.763,0.635-1.672,1.132-2.727,1.493c-1.056,0.36-2.213,0.541-3.474,0.541c-1.293,0-2.397-0.143-3.315-0.428
		c-0.917-0.285-1.688-0.667-2.313-1.146c-0.624-0.479-1.124-1.025-1.5-1.638s-0.669-1.243-0.879-1.888h-1.26v-2.776h4.178
		c0,1.194,0.13,2.039,0.39,2.534c0.26,0.495,0.621,0.906,1.086,1.234c0.464,0.328,1.017,0.576,1.657,0.742
		c0.642,0.167,1.349,0.25,2.122,0.25c0.752,0,1.429-0.086,2.031-0.258c0.602-0.172,1.116-0.422,1.541-0.75
		c0.426-0.328,0.752-0.726,0.979-1.194c0.227-0.468,0.34-0.998,0.34-1.589c0-0.656-0.141-1.213-0.423-1.67
		c-0.281-0.458-0.644-0.847-1.086-1.17c-0.442-0.323-0.926-0.586-1.45-0.791c-0.525-0.204-1.031-0.382-1.517-0.533l-3.631-1
		c-0.796-0.236-1.522-0.538-2.18-0.904c-0.658-0.366-1.222-0.812-1.691-1.339c-0.47-0.527-0.832-1.143-1.086-1.848
		c-0.254-0.704-0.381-1.52-0.381-2.445c0-0.936,0.188-1.813,0.563-2.63c0.376-0.818,0.929-1.533,1.657-2.146
		c0.729-0.613,1.622-1.095,2.678-1.444s2.263-0.524,3.622-0.524c0.896,0,1.722,0.102,2.479,0.306
		c0.757,0.205,1.442,0.493,2.056,0.864s1.155,0.818,1.625,1.339c0.47,0.522,0.864,1.095,1.185,1.719h1.244v2.776h-4.062
		C399.381,86.413,399.203,85.703,398.85,85.229z"/>
</g>
</svg>
