<?xml version="1.0" encoding="utf-8"?>
<!-- Generator: Adobe Illustrator 16.0.0, SVG Export Plug-In . SVG Version: 6.00 Build 0)  -->
<!DOCTYPE svg PUBLIC "-//W3C//DTD SVG 1.1//EN" "http://www.w3.org/Graphics/SVG/1.1/DTD/svg11.dtd">
<svg version="1.1" id="Layer_1" xmlns="http://www.w3.org/2000/svg" xmlns:xlink="http://www.w3.org/1999/xlink" x="0px" y="0px"
	 width="480px" height="197px" viewBox="0 0 480 197" enable-background="new 0 0 480 197" xml:space="preserve">
<rect x="-4" y="-5" display="none" fill-rule="evenodd" clip-rule="evenodd" width="484" height="209"/>
<g>
	<path fill-rule="evenodd" clip-rule="evenodd" fill="#FFFFFF" d="M341.1,163.34c-1.383-0.569-2.893-0.506-4.321-0.864
		c-1.602-0.4-3.17-0.872-4.7-1.489c-0.6-0.242-0.849-0.556-0.831-1.239c0.053-2.023,0.061-4.05,0.001-6.073
		c-0.028-0.938,0.168-1.066,1.039-0.692c4.798,2.058,9.781,3.304,15.045,3.144c1.729-0.053,3.432-0.303,5.021-1.047
		c4.179-1.957,5.146-7.344,1.907-10.635c-1.147-1.165-2.573-1.925-4.001-2.671c-2.157-1.126-4.43-1.999-6.661-2.959
		c-2.138-0.92-4.188-2.001-6.045-3.416c-4.871-3.709-6.446-8.721-5.358-14.548c1.044-5.594,4.91-8.706,10.151-10.105
		c6.405-1.711,12.706-0.797,18.869,1.367c2.684,0.942,2.674,0.968,1.624,3.641c-0.465,1.183-0.985,2.349-1.373,3.557
		c-0.245,0.765-0.569,0.726-1.201,0.475c-3.922-1.557-7.938-2.693-12.218-2.569c-0.979,0.028-1.939,0.169-2.881,0.434
		c-2.422,0.681-4.169,2.122-4.663,4.652c-0.497,2.543,0.078,4.837,2.157,6.599c1.947,1.648,4.271,2.606,6.567,3.607
		c3.018,1.314,6.051,2.578,8.885,4.284c7.47,4.496,7.517,12.683,5.27,17.801c-1.908,4.349-5.6,6.588-9.993,7.825
		c-1.375,0.386-2.792,0.621-4.189,0.925c-1.726,0-3.45,0-5.175,0c-0.45-0.184-0.9-0.184-1.351,0
		C342.15,163.34,341.625,163.34,341.1,163.34z"/>
	<path fill-rule="evenodd" clip-rule="evenodd" fill="#FFFFFF" d="M422.325,163.34c-1.337-0.596-2.813-0.513-4.203-0.865
		c-1.636-0.414-3.245-0.877-4.798-1.544c-0.467-0.201-0.703-0.414-0.695-0.971c0.032-2.397,0.014-4.796,0.014-7.202
		c0.487-0.15,0.811,0.177,1.163,0.322c4.754,1.97,9.659,3.193,14.843,3.048c1.541-0.043,3.059-0.262,4.509-0.819
		c4.924-1.891,5.944-7.991,1.886-11.374c-1.771-1.477-3.863-2.417-5.947-3.352c-2.763-1.238-5.626-2.255-8.225-3.844
		c-2.944-1.8-5.453-4.022-6.641-7.363c-2.6-7.315-0.597-16.447,10.422-18.871c6.848-1.507,13.468-0.276,19.875,2.373
		c0.579,0.239,0.602,0.493,0.39,1.011c-0.722,1.764-1.438,3.534-2.073,5.33c-0.258,0.731-0.494,0.867-1.249,0.563
		c-3.916-1.572-7.938-2.699-12.217-2.567c-1.245,0.039-2.461,0.236-3.626,0.678c-4.23,1.607-5.479,7.063-2.379,10.383
		c1.332,1.427,3.029,2.301,4.756,3.129c2.933,1.408,6.016,2.484,8.891,4.016c0.957,0.51,1.888,1.069,2.818,1.627
		c8.749,5.25,8.092,19.337-1.238,23.879c-2.388,1.163-4.878,1.873-7.498,2.192c-0.233,0.029-0.543-0.132-0.677,0.219
		c-1.725,0-3.45,0-5.175,0c-0.45-0.184-0.9-0.184-1.35,0C423.375,163.34,422.85,163.34,422.325,163.34z"/>
	<path fill-rule="evenodd" clip-rule="evenodd" fill="#FFFFFF" d="M27.225,152.54c5.064,2.326,10.342,3.709,15.955,3.591
		c1.467-0.031,2.92-0.228,4.304-0.718c2.343-0.83,4.003-2.363,4.47-4.888c0.505-2.734-0.306-5.04-2.539-6.767
		c-1.881-1.455-4.028-2.436-6.191-3.376c-2.879-1.252-5.824-2.359-8.476-4.086c-3.086-2.01-5.485-4.589-6.371-8.239
		c-2.063-8.5,1.656-15.453,10.684-17.513c6.914-1.577,13.61-0.337,20.088,2.349c0.624,0.259,0.524,0.558,0.334,1.032
		c-0.723,1.804-1.453,3.607-2.1,5.439c-0.249,0.705-0.546,0.682-1.13,0.442c-2.989-1.225-6.068-2.138-9.293-2.479
		c-2.212-0.234-4.417-0.242-6.546,0.545c-4.326,1.6-5.599,7.048-2.437,10.426c1.333,1.424,3.022,2.319,4.764,3.113
		c2.653,1.208,5.334,2.357,7.984,3.571c1.635,0.749,3.164,1.686,4.639,2.724c7.272,5.12,6.696,17.237-0.197,21.989
		c-2.819,1.944-5.936,2.954-9.279,3.413c-0.23,0.032-0.546-0.133-0.665,0.232c-1.8,0-3.6,0-5.4,0c-0.45-0.184-0.9-0.184-1.35,0
		c-0.525,0-1.05,0-1.575,0c-2.049-0.259-4.113-0.404-6.104-1.034c-0.958-0.303-1.886-0.673-2.817-1.042
		c-0.321-0.127-0.586-0.316-0.754-0.625C27.225,157.94,27.225,155.24,27.225,152.54z"/>
	<path fill-rule="evenodd" clip-rule="evenodd" fill="#FFFFFF" d="M173.475,163.34c-1-0.534-2.139-0.478-3.203-0.741
		c-6.983-1.73-11.946-5.894-14.396-12.633c-3.208-8.828-3.356-17.793,0.298-26.539c3.25-7.778,9.423-11.993,17.667-13.188
		c6.334-0.917,12.461-0.054,18.34,2.523c0.781,0.342,0.94,0.667,0.549,1.472c-0.849,1.747-1.609,3.541-2.328,5.345
		c-0.269,0.674-0.528,0.669-1.124,0.407c-3.333-1.468-6.722-2.738-10.443-2.78c-7.396-0.083-12.688,3.532-14.921,10.569
		c-1.979,6.237-1.906,12.582,0.176,18.785c2.114,6.297,7.256,9.588,14.337,9.539c4.012-0.028,7.875-0.908,11.678-2.07
		c0.968-0.295,1.14-0.071,1.109,0.85c-0.059,1.76-0.053,3.525,0.001,5.285c0.021,0.694-0.239,0.966-0.862,1.177
		c-2.673,0.903-5.417,1.451-8.213,1.771c-0.269,0.03-0.615-0.142-0.792,0.229c-0.225,0-0.45,0-0.675,0
		c-0.375-0.184-0.75-0.184-1.125,0C177.525,163.34,175.5,163.34,173.475,163.34z"/>
	<path fill-rule="evenodd" clip-rule="evenodd" fill="#FFFFFF" d="M27.225,56.465c4.158,0.017,8.316,0.041,12.474,0.049
		c4.572,0.008,9.144,0.017,13.715-0.014c0.716-0.005,1.008,0.153,0.965,0.921c-0.062,1.083-0.072,2.177,0.002,3.258
		c0.057,0.838-0.286,0.971-1.027,0.961c-2.847-0.04-5.696,0.019-8.543-0.037c-0.87-0.017-1.119,0.199-1.115,1.098
		c0.035,9.556,0.006,19.112,0.046,28.667c0.004,0.981-0.213,1.316-1.224,1.233c-1.191-0.097-2.402-0.096-3.594,0
		c-0.998,0.08-1.131-0.318-1.128-1.202c0.032-9.556,0.003-19.112,0.046-28.667c0.004-0.971-0.273-1.148-1.174-1.13
		c-3.146,0.063-6.295,0.033-9.442,0.038C27.225,59.915,27.225,58.19,27.225,56.465z"/>
	<path fill-rule="evenodd" clip-rule="evenodd" fill="#FFFFFF" d="M394.875,19.34c2.039,1.96,3.841,4.136,5.684,6.274
		c-0.826,0.998-2.004,1.644-2.732,2.744c-0.104,0.157-0.335,0.127-0.504-0.002c-1.612-1.795-3.251-3.567-4.825-5.394
		c-1.063-1.233-0.771-2.398,0.803-3.622C393.825,19.34,394.35,19.34,394.875,19.34z"/>
	<path fill-rule="evenodd" clip-rule="evenodd" fill="#FFFFFF" d="M38.475,163.34c0.45-0.389,0.9-0.299,1.35,0
		C39.375,163.34,38.925,163.34,38.475,163.34z"/>
	<path fill-rule="evenodd" clip-rule="evenodd" fill="#FFFFFF" d="M342.675,163.34c0.45-0.383,0.9-0.313,1.351,0
		C343.575,163.34,343.125,163.34,342.675,163.34z"/>
	<path fill-rule="evenodd" clip-rule="evenodd" fill="#FFFFFF" d="M423.9,163.34c0.449-0.388,0.899-0.3,1.35,0
		C424.8,163.34,424.35,163.34,423.9,163.34z"/>
	<path fill-rule="evenodd" clip-rule="evenodd" fill="#FFFFFF" d="M179.55,163.34c0.375-0.269,0.75-0.386,1.125,0
		C180.3,163.34,179.925,163.34,179.55,163.34z"/>
	<path fill-rule="evenodd" clip-rule="evenodd" fill="#FFFFFF" d="M279.476,74.479c0-5.624,0.021-11.248-0.021-16.871
		c-0.007-0.881,0.209-1.173,1.108-1.114c1.232,0.081,2.477,0.072,3.71,0.003c0.857-0.048,1.149,0.17,1.138,1.094
		c-0.054,4.198,0.001,8.398-0.044,12.596c-0.009,0.869,0.196,1.133,1.104,1.124c4.836-0.049,9.673-0.049,14.509,0.001
		c0.882,0.009,1.034-0.259,1.026-1.069c-0.041-4.199,0.013-8.398-0.042-12.597c-0.013-0.957,0.275-1.21,1.19-1.151
		c1.231,0.079,2.476,0.072,3.709,0.002c0.861-0.048,1.143,0.175,1.135,1.097c-0.047,5.623-0.023,11.247-0.023,16.871
		c0,5.661-0.024,11.323,0.022,16.983c0.009,0.96-0.28,1.208-1.193,1.15c-1.232-0.079-2.476-0.071-3.709-0.002
		c-0.859,0.048-1.142-0.175-1.132-1.094c0.052-4.686-0.004-9.373,0.048-14.059c0.01-0.953-0.267-1.16-1.185-1.15
		c-4.799,0.049-9.598,0.045-14.396,0.002c-0.847-0.007-1.069,0.216-1.062,1.059c0.041,4.724-0.001,9.448,0.039,14.171
		c0.006,0.822-0.173,1.126-1.045,1.074c-1.308-0.078-2.626-0.071-3.935-0.002c-0.826,0.044-0.973-0.269-0.969-1.021
		C279.489,85.877,279.476,80.178,279.476,74.479z"/>
	<path fill-rule="evenodd" clip-rule="evenodd" fill="#FFFFFF" d="M59.857,74.511c0-5.625,0.026-11.25-0.025-16.874
		c-0.009-0.968,0.274-1.201,1.187-1.142c1.27,0.082,2.551,0.068,3.823,0.002c0.768-0.04,0.93,0.232,0.924,0.952
		c-0.032,4.237,0.017,8.475-0.04,12.711c-0.013,0.963,0.283,1.158,1.189,1.15c4.762-0.046,9.525-0.062,14.286,0.01
		c1.06,0.016,1.195-0.332,1.184-1.254c-0.048-4.124,0.023-8.25-0.051-12.374c-0.019-1.05,0.31-1.254,1.255-1.197
		c1.308,0.08,2.625,0.053,3.936,0.006c0.652-0.023,0.838,0.204,0.824,0.833c-0.036,1.611-0.012,3.225-0.012,4.837
		c0,9.75-0.013,19.499,0.021,29.249c0.003,0.921-0.221,1.243-1.169,1.179c-1.231-0.083-2.479-0.092-3.709,0.002
		c-0.989,0.076-1.145-0.302-1.137-1.196c0.046-4.687-0.001-9.375,0.043-14.061c0.008-0.846-0.206-1.057-1.051-1.049
		c-4.836,0.044-9.674,0.049-14.511-0.003c-0.931-0.01-1.099,0.292-1.092,1.14c0.038,4.724,0,9.449,0.037,14.174
		c0.006,0.794-0.217,1.028-1,0.991c-1.309-0.063-2.626-0.063-3.936,0c-0.782,0.038-1-0.191-0.996-0.986
		C59.874,85.911,59.857,80.21,59.857,74.511z"/>
	<path fill-rule="evenodd" clip-rule="evenodd" fill="#FFFFFF" d="M317.449,74.502c0-5.624,0.016-11.249-0.017-16.873
		c-0.005-0.828,0.134-1.146,1.074-1.139c6.111,0.048,12.224,0.044,18.335,0.003c0.878-0.006,1.092,0.266,1.037,1.081
		c-0.066,1.008-0.066,2.027,0.001,3.035c0.051,0.767-0.232,0.939-0.954,0.934c-4.162-0.031-8.324,0.021-12.485-0.042
		c-0.987-0.015-1.151,0.3-1.13,1.191c0.062,2.511,0.056,5.024,0.003,7.536c-0.019,0.839,0.15,1.133,1.073,1.119
		c3.86-0.06,7.724-0.001,11.585-0.045c0.798-0.009,1.047,0.218,0.979,0.998c-0.113,1.298,0.536,3.045-0.25,3.777
		c-0.691,0.643-2.423,0.181-3.695,0.185c-2.925,0.008-5.85,0.029-8.773-0.016c-0.744-0.011-0.926,0.201-0.917,0.928
		c0.041,3.111,0.049,6.224-0.003,9.335c-0.014,0.821,0.164,1.064,1.028,1.054c4.161-0.052,8.324,0.003,12.485-0.044
		c0.848-0.01,1.116,0.208,1.056,1.056c-0.074,1.044-0.063,2.101-0.002,3.147c0.042,0.724-0.235,0.872-0.902,0.87
		c-6.225-0.022-12.449-0.032-18.673,0.01c-0.854,0.006-0.864-0.371-0.863-1.001C317.455,85.9,317.449,80.201,317.449,74.502z"/>
	<path fill-rule="evenodd" clip-rule="evenodd" fill="#FFFFFF" d="M97.824,74.5c0-5.661,0.013-11.322-0.016-16.983
		c-0.003-0.748,0.143-1.026,0.968-1.021c6.148,0.037,12.297,0.033,18.445,0.003c0.774-0.004,1.064,0.189,1.007,0.991
		c-0.067,0.933-0.081,1.879,0.002,2.809c0.085,0.959-0.168,1.276-1.206,1.258c-4.085-0.07-8.172-0.01-12.259-0.045
		c-0.776-0.007-1.102,0.092-1.075,1.005c0.076,2.622,0.064,5.249,0.005,7.872c-0.019,0.83,0.258,0.958,1.006,0.951
		c3.861-0.039,7.723,0.014,11.584-0.042c0.877-0.013,1.088,0.243,1.023,1.062c-0.073,0.932-0.069,1.877-0.001,2.81
		c0.061,0.836-0.142,1.135-1.067,1.121c-3.823-0.06-7.648,0.01-11.471-0.05c-0.919-0.014-1.084,0.276-1.071,1.115
		c0.048,3.111,0.041,6.224,0.002,9.334c-0.009,0.689,0.157,0.876,0.86,0.87c4.198-0.036,8.397,0.004,12.596-0.036
		c0.806-0.008,1.151,0.138,1.075,1.028c-0.086,1.005-0.067,2.026-0.004,3.034c0.048,0.776-0.184,1.022-0.988,1.013
		c-3.486-0.043-6.973-0.019-10.459-0.019c-2.662,0-5.324-0.031-7.985,0.019c-0.796,0.015-0.994-0.222-0.99-1.001
		C97.839,85.897,97.824,80.199,97.824,74.5z"/>
	<path fill-rule="evenodd" clip-rule="evenodd" fill="#FFFFFF" d="M259.116,93.087c-3.443-0.145-6.065-0.478-8.59-1.423
		c-0.798-0.298-1.229-0.644-1.139-1.59c0.103-1.078,0.072-2.175,0.009-3.258c-0.056-0.938,0.041-1.243,1.099-0.794
		c3.52,1.495,7.189,2.322,11.047,1.946c1.896-0.185,3.604-0.789,4.591-2.586c1.154-2.104,0.475-4.626-1.652-6.123
		c-1.567-1.104-3.326-1.849-5.092-2.575c-1.834-0.755-3.638-1.568-5.271-2.718c-3.579-2.521-4.815-6.037-4.097-10.218
		c0.679-3.953,3.372-6.156,7.076-7.137c4.949-1.311,9.72-0.397,14.377,1.452c0.504,0.2,0.431,0.476,0.278,0.855
		c-0.447,1.108-0.912,2.211-1.301,3.34c-0.229,0.665-0.472,0.832-1.189,0.542c-2.834-1.142-5.755-1.895-8.856-1.64
		c-2.348,0.193-4.084,1.406-4.556,3.202c-0.578,2.199,0.2,4.079,2.317,5.475c1.663,1.096,3.53,1.786,5.347,2.569
		c1.581,0.681,3.138,1.405,4.596,2.326c3.398,2.146,4.724,5.283,4.354,9.201c-0.339,3.599-2.254,6.099-5.468,7.653
		C264.254,92.911,261.317,93.114,259.116,93.087z"/>
	<path fill-rule="evenodd" clip-rule="evenodd" fill="#FFFFFF" d="M373.034,74.582c0-5.696,0.015-11.392-0.018-17.087
		c-0.005-0.773,0.181-1.003,0.98-0.999c6.146,0.035,12.291,0.03,18.437,0.004c0.718-0.003,1,0.156,0.951,0.927
		c-0.068,1.082-0.063,2.175-0.001,3.258c0.042,0.733-0.251,0.86-0.908,0.856c-4.121-0.026-8.244,0.03-12.364-0.042
		c-1.072-0.019-1.262,0.325-1.241,1.297c0.063,2.884,0.072,5.771-0.004,8.654c-0.026,1.036,0.166,1.384,1.3,1.358
		c3.782-0.085,7.568-0.016,11.353-0.047c0.713-0.006,1.003,0.15,0.95,0.924c-0.071,1.044-0.066,2.1-0.002,3.146
		c0.049,0.772-0.171,1.012-0.976,1.003c-3.896-0.044-7.794,0-11.69-0.037c-0.727-0.007-0.933,0.174-0.926,0.916
		c0.037,4.309,0.003,8.618,0.033,12.927c0.005,0.704-0.134,0.995-0.908,0.956c-1.309-0.065-2.625-0.071-3.933,0.001
		c-0.836,0.047-1.062-0.184-1.056-1.042C373.055,85.898,373.034,80.24,373.034,74.582z"/>
	<path fill-rule="evenodd" clip-rule="evenodd" fill="#FFFFFF" d="M151.625,77.128c0,4.835-0.022,9.671,0.021,14.506
		c0.008,0.84-0.289,0.991-1.03,0.959c-1.272-0.054-2.551-0.068-3.821,0.003c-0.867,0.049-1.134-0.187-1.13-1.099
		c0.039-8.208,0.022-16.417,0.022-24.626c0-1.424-0.046-2.851,0.019-4.272c0.036-0.775-0.169-1.01-0.971-0.995
		c-2.848,0.051-5.698-0.023-8.545,0.044c-0.965,0.023-1.217-0.282-1.14-1.194c0.082-0.968,0.082-1.953,0-2.92
		c-0.075-0.884,0.267-1.041,1.079-1.037c7.309,0.031,14.618,0.019,21.927,0.019c1.125,0,2.251,0.037,3.373-0.014
		c0.66-0.03,0.828,0.209,0.803,0.832c-0.045,1.123-0.056,2.251,0.003,3.372c0.038,0.724-0.163,0.95-0.917,0.938
		c-2.885-0.046-5.772,0.012-8.658-0.038c-0.806-0.014-1.068,0.141-1.059,1.018C151.651,67.458,151.625,72.293,151.625,77.128z"/>
	<path fill-rule="evenodd" clip-rule="evenodd" fill="#FFFFFF" d="M345.616,74.529c0-5.662,0.02-11.324-0.021-16.986
		c-0.007-0.852,0.216-1.102,1.058-1.047c1.157,0.075,2.329,0.094,3.483-0.003c1.097-0.092,1.441,0.187,1.435,1.375
		c-0.059,9.449-0.012,18.898-0.062,28.347c-0.006,1.101,0.275,1.344,1.346,1.328c4.349-0.067,8.699-0.009,13.049-0.046
		c0.745-0.006,0.954,0.201,0.914,0.929c-0.062,1.122-0.041,2.25-0.006,3.374c0.017,0.558-0.101,0.795-0.736,0.793
		c-6.562-0.023-13.124-0.029-19.686,0.005c-0.822,0.004-0.781-0.405-0.78-0.969C345.619,85.929,345.616,80.229,345.616,74.529z"/>
	<path fill-rule="evenodd" clip-rule="evenodd" fill="#FFFFFF" d="M397.322,28.355c0.951-0.469,1.193-1.677,2.202-2.103
		c0.369-0.155,0.69-0.422,1.034-0.639c4.092-1.41,7.866,0.437,8.817,4.346c0.316,1.3,0.224,2.596-0.288,3.851
		c-0.138,0.338-0.382,0.656-0.278,1.061c-1.097,0.912-2.052,2-3.344,2.667c-1.109,0.031-2.19,0.393-3.327,0.169
		c-3.898-0.767-6.16-4.49-4.989-8.277C397.259,29.077,397.458,28.745,397.322,28.355z"/>
	<path fill-rule="evenodd" clip-rule="evenodd" fill="#FFFFFF" d="M115.451,136.629c0-8.284,0.011-16.568-0.018-24.852
		c-0.003-0.833,0.142-1.141,1.078-1.137c9.146,0.04,18.292,0.035,27.438,0.005c0.79-0.002,1.016,0.195,0.986,0.987
		c-0.064,1.684-0.074,3.375,0.002,5.058c0.041,0.915-0.187,1.194-1.149,1.187c-6.222-0.047-12.444-0.002-18.667-0.048
		c-0.934-0.007-1.178,0.219-1.165,1.161c0.058,4.01,0.046,8.021,0.006,12.032c-0.008,0.792,0.216,0.998,1,0.994
		c5.847-0.033,11.695,0.002,17.542-0.04c0.89-0.006,1.141,0.233,1.102,1.112c-0.072,1.608-0.077,3.226,0.001,4.833
		c0.045,0.917-0.184,1.188-1.145,1.18c-5.772-0.05-11.545-0.003-17.317-0.047c-0.912-0.007-1.198,0.189-1.188,1.147
		c0.052,4.685,0.064,9.371-0.008,14.056c-0.016,1.066,0.34,1.195,1.263,1.19c6.185-0.039,12.37,0.001,18.555-0.043
		c0.918-0.006,1.221,0.189,1.172,1.15c-0.087,1.72-0.059,3.448-0.008,5.171c0.021,0.724-0.171,0.942-0.922,0.94
		c-9.184-0.027-18.367-0.031-27.551,0.004c-0.883,0.004-1.029-0.275-1.026-1.078C115.462,153.272,115.451,144.95,115.451,136.629z"
		/>
	<path fill-rule="evenodd" clip-rule="evenodd" fill="#FFFFFF" d="M384.125,140.288c0-7.087-0.016-14.175,0.02-21.262
		c0.005-0.873-0.208-1.132-1.107-1.122c-4.387,0.049-8.774,0-13.161,0.041c-0.822,0.008-1.11-0.169-1.073-1.043
		c0.074-1.759,0.05-3.525,0.009-5.286c-0.016-0.691,0.12-0.972,0.907-0.97c12.45,0.026,24.899,0.022,37.35,0.007
		c0.631,0,0.938,0.074,0.913,0.832c-0.06,1.873-0.06,3.75,0,5.624c0.024,0.761-0.291,0.833-0.917,0.83
		c-4.388-0.022-8.776,0.029-13.162-0.041c-1.085-0.017-1.263,0.34-1.261,1.318c0.03,14.063,0.008,28.125,0.046,42.187
		c0.003,1.041-0.274,1.31-1.289,1.271c-2.097-0.081-4.2-0.062-6.299-0.005c-0.799,0.021-0.995-0.224-0.992-1.005
		C384.138,154.538,384.125,147.413,384.125,140.288z"/>
	<path fill-rule="evenodd" clip-rule="evenodd" fill="#FFFFFF" d="M272.839,136.682c0-8.321,0.011-16.643-0.018-24.964
		c-0.003-0.798,0.13-1.109,1.022-1.078c2.134,0.074,4.273,0.069,6.408,0.002c0.888-0.028,1.106,0.231,1.104,1.108
		c-0.028,14.057-0.007,28.113-0.045,42.17c-0.003,1.098,0.204,1.448,1.387,1.436c6.521-0.066,13.045-0.015,19.566-0.052
		c0.881-0.005,1.16,0.22,1.123,1.117c-0.071,1.759-0.05,3.523-0.007,5.284c0.018,0.701-0.134,0.963-0.912,0.961
		c-9.559-0.028-19.117-0.029-28.675,0c-0.823,0.002-0.973-0.272-0.971-1.021C272.848,153.325,272.839,145.004,272.839,136.682z"/>
	<path fill-rule="evenodd" clip-rule="evenodd" fill="#FFFFFF" d="M320.857,136.685c0,8.285-0.011,16.571,0.017,24.856
		c0.003,0.829-0.134,1.168-1.073,1.133c-2.134-0.08-4.273-0.06-6.409-0.008c-0.792,0.02-1.09-0.118-1.088-1.018
		c0.03-16.683,0.026-33.367,0.008-50.05c-0.001-0.71,0.151-0.971,0.917-0.953c2.211,0.052,4.425,0.07,6.634-0.007
		c0.9-0.031,1.015,0.29,1.012,1.076C320.847,120.039,320.857,128.361,320.857,136.685z"/>
	<path fill-rule="evenodd" clip-rule="evenodd" fill="#FFFFFF" d="M210.876,136.695c0,8.281-0.011,16.561,0.017,24.842
		c0.003,0.83-0.14,1.171-1.078,1.137c-2.133-0.079-4.272-0.067-6.406-0.004c-0.838,0.024-1.076-0.196-1.069-1.049
		c0.041-5.133,0.021-10.266,0.021-15.399c0-11.465,0.012-22.931-0.022-34.396c-0.003-0.923,0.206-1.218,1.157-1.185
		c2.096,0.073,4.197,0.067,6.293,0.001c0.876-0.027,1.112,0.209,1.109,1.099C210.861,120.06,210.876,128.378,210.876,136.695z"/>
	<path fill-rule="evenodd" clip-rule="evenodd" fill="#FFFFFF" d="M458.418,43.81c-0.709-0.728-1.597-0.871-2.573-0.87
		c-12.897,0.013-25.796,0.001-38.693,0.026c-0.778,0.001-1.314-0.201-1.833-0.794c-2.143-2.457-4.335-4.87-6.509-7.3
		c-0.414-0.297-0.612,0.07-0.814,0.298c-0.622,0.7-1.323,1.294-2.12,1.784c-0.209,0.128-0.479,0.271-0.409,0.61
		c1.54,1.754,3.081,3.436,4.749,5.436c-0.604,0-0.973,0-1.34,0c-4.95,0-9.9-0.032-14.851-0.021
		c-1.759,0.003-2.943,1.005-3.082,2.602c-0.114,1.306,0.637,2.137,1.554,2.933c9.57,8.307,19.12,16.633,28.699,24.928
		c0.716,0.62,1.019,1.23,1.014,2.191c-0.042,7.5-0.023,14.998-0.023,22.498c0,1.534,0,1.534-1.53,1.534
		c-129.897,0-259.909,0.002-389.807-0.025c-1.721,0-2.849,0.498-3.849,2.05c0,0.6,0,1.2,0,1.8c1,1.592,2.234,2.034,3.974,2.034
		c137.076-0.027,274.209-0.024,411.286-0.025c0.412,0,0.855,0.025,1.265-0.014c1.231-0.118,2.133-0.752,2.548-1.918
		c0.709-1.988-0.684-3.886-2.877-3.895c-4.762-0.021-9.521-0.026-14.282,0.013c-0.784,0.007-0.988-0.184-0.984-0.979
		c0.032-7.836,0.027-15.672,0.008-23.508c-0.002-0.616,0.18-1.025,0.647-1.431c6.575-5.692,13.135-11.402,19.696-17.11
		c3.28-2.854,6.567-5.702,9.83-8.576C459.499,46.857,459.604,45.025,458.418,43.81z M443.132,53.641
		c-5.766,5.02-11.54,9.962-17.292,14.998c-0.535,0.47-0.852,0.557-1.463,0.021c-7.329-6.421-14.689-12.687-22.035-19.088
		c-0.209-0.182-0.528-0.571-0.553-0.571c15.528,0,31.045,0,46.813,0C446.661,50,444.899,52.102,443.132,53.641z"/>
	<path fill-rule="evenodd" clip-rule="evenodd" fill="#FFFFFF" d="M198.185,65.446c-1.777-4.737-5.297-7.692-10.222-8.92
		c-2.275-0.567-4.598-0.622-6.924-0.491c-7.193,0.404-12.313,4.477-14.222,11.311c-0.649,2.325-0.865,4.707-0.85,7.114
		c0.006,1.951,0.118,3.893,0.533,5.806c1.306,6.021,4.55,10.346,10.681,12.082c2.696,0.764,5.457,0.886,8.242,0.581
		c6.109-0.669,10.587-3.657,12.786-9.47C200.463,77.5,200.421,71.406,198.185,65.446z M192.847,80.18
		c-1.303,5.285-4.654,7.86-10.118,7.824c-5.274-0.034-8.686-2.787-9.917-7.985c-0.435-1.834-0.547-3.7-0.586-5.574
		c0.058-2.023,0.184-4.034,0.757-5.998c1.518-5.197,5.427-7.878,10.821-7.388c5.117,0.465,8.072,3.085,9.175,8.312
		C193.737,72.968,193.731,76.593,192.847,80.18z"/>
	<path fill-rule="evenodd" clip-rule="evenodd" fill="#FFFFFF" d="M231.308,65.958c-0.346-3.983-2.341-6.782-6.09-8.261
		c-1.47-0.58-3.007-0.893-4.582-1.018c-4.041-0.323-8.089-0.071-12.131-0.183c-0.852-0.023-1.056,0.218-1.05,1.057
		c0.039,5.657,0.021,11.313,0.021,16.97c0,5.694,0.017,11.389-0.019,17.083c-0.005,0.795,0.218,1.027,0.999,0.99
		c1.308-0.062,2.625-0.075,3.932,0.003c0.868,0.052,1.056-0.243,1.046-1.069c-0.045-3.708,0.011-7.418-0.041-11.126
		c-0.014-0.97,0.162-1.356,1.251-1.313c1.754,0.068,3.526,0.024,5.274-0.146C226.606,78.293,232.066,74.685,231.308,65.958z
		 M221.188,73.538c-2.367,0.73-5.02,0.565-7.447,0.59c-0.592,0.006-0.741-0.381-0.741-0.758c0-1.872,0-3.743,0-5.615
		c0-1.834,0.211-3.668,0.205-5.503c-0.002-0.44,0.091-0.812,0.726-0.795c2.277,0.062,4.62-0.154,6.87,0.39
		c2.877,0.696,4.338,2.446,4.447,5.405C225.37,70.587,224.068,72.649,221.188,73.538z"/>
	<path fill-rule="evenodd" clip-rule="evenodd" fill="#FFFFFF" d="M265.846,162.317c-6.368-17.09-12.741-34.178-19.095-51.273
		c-0.203-0.548-0.521-0.615-1.009-0.612c-2.474,0.015-4.948,0.049-7.42-0.017c-0.855-0.022-1.206,0.247-1.502,1.049
		c-4.739,12.791-9.519,25.566-14.288,38.347c-1.579,4.23-3.154,8.462-4.784,12.837c2.803,0,5.426-0.021,8.048,0.015
		c0.694,0.009,1.023-0.167,1.266-0.88c1.447-4.245,2.983-8.459,4.438-12.701c0.239-0.696,0.564-0.887,1.272-0.884
		c5.997,0.029,11.995,0.036,17.991-0.006c0.803-0.006,1.068,0.294,1.313,0.987c1.475,4.195,2.995,8.375,4.52,12.553
		c0.137,0.376,0.107,0.926,0.78,0.922c2.828-0.017,5.656-0.007,8.495-0.007C265.857,162.46,265.869,162.382,265.846,162.317z
		 M248.393,140.875c-4.347-0.042-8.693-0.018-13.039-0.021c-0.292,0-0.583-0.027-1.003-0.047c1.322-3.811,2.617-7.545,3.914-11.278
		c1.287-3.706,2.586-7.408,3.453-11.256c0.313-0.011,0.313,0.24,0.364,0.428c2.003,7.167,4.687,14.108,7.054,21.154
		C249.434,140.742,249.287,140.883,248.393,140.875z"/>
	<path fill-rule="evenodd" clip-rule="evenodd" fill="#FFFFFF" d="M105.039,124.691c-0.439-6.527-3.99-10.977-10.242-12.865
		c-2.344-0.708-4.75-1.101-7.192-1.124c-5.362-0.05-10.725-0.02-16.087-0.051c-0.643-0.003-0.903,0.096-0.902,0.838
		c0.023,16.763,0.022,33.525,0.004,50.288c0,0.668,0.138,0.906,0.859,0.89c2.249-0.05,4.5-0.046,6.749-0.002
		c0.724,0.015,0.882-0.17,0.872-0.926c-0.044-2.924-0.1-5.85-0.1-8.775c0-2.7,0-5.4,0-8.1c0-1.688,0.082-1.689,1.82-1.687
		c4.047,0.004,8.145,0.124,12.099-0.989c5.756-1.619,9.993-4.877,11.577-10.913C105.063,129.114,105.188,126.906,105.039,124.691z
		 M96.189,128.373c-0.542,4.183-3.041,6.443-7.659,7.258c-2.892,0.51-5.9,0.398-8.818,0.426C78.98,136.064,79,135.609,79,135.166
		c0-2.771,0-5.541,0-8.312c0-2.696,0.104-5.392,0.066-8.087c-0.01-0.735,0.161-1.061,1.002-1.034
		c2.915,0.094,5.858-0.118,8.762,0.342C94.923,119.041,96.875,123.084,96.189,128.373z"/>
	<path fill-rule="evenodd" clip-rule="evenodd" fill="#FFFFFF" d="M413.909,53.361c7.532,0,14.817,0,22.32,0
		c-1.643,1.435-3.147,2.754-4.657,4.069c-1.979,1.723-3.971,3.431-5.934,5.171c-0.414,0.367-0.671,0.411-1.113,0.021
		C421.065,59.576,417.581,56.558,413.909,53.361z"/>
</g>
</svg>
