<?xml version="1.0" encoding="utf-8"?>
<!-- Generator: Adobe Illustrator 16.0.0, SVG Export Plug-In . SVG Version: 6.00 Build 0)  -->
<!DOCTYPE svg PUBLIC "-//W3C//DTD SVG 1.1//EN" "http://www.w3.org/Graphics/SVG/1.1/DTD/svg11.dtd">
<svg version="1.1" id="Layer_1" xmlns="http://www.w3.org/2000/svg" xmlns:xlink="http://www.w3.org/1999/xlink" x="0px" y="0px"
	 width="296px" height="392px" viewBox="0 0 296 392" enable-background="new 0 0 296 392" xml:space="preserve">
<g>
	<path fill="#010101" d="M287.864,392c0,0-0.07-10.999-0.075-16.529c-0.067-96.644-1.366-191.833-0.571-288.471l0.063-18.939
		c0,0-55.307-1.024-65.375,0c0,0-0.072-50.061-0.346-68.061c0,0-7.338,2.653-9.641,3.394C149.021,23.604,71.334,48.516,8.162,67.833
		c0,0-0.06,5.011,0,16.927c0.498,96.895,0.299,193.749,0.23,290.647L8.613,392C102.488,392,193.989,392,287.864,392z
		 M207.322,22.625v7.787v37.649c-33.211,0-99.411,0-132.622,0c-0.117-0.906-0.234-1.812-0.35-2.718
		C116.146,51.957,165.52,35.996,207.322,22.625z M26,84.833c73.425,0.374,172.41-0.181,245.834,0l0.154,13.904
		c-0.487,43.848-0.211,87.704-0.211,131.556c0,44.362-0.354,88.729,0.262,133.083L272.125,376
		c-73.426-0.383-172.636-0.764-246.062-0.375l0.033-12.264c0.435-88.723,0.445-177.449-0.011-266.172L26,84.833z"/>
	<path fill="#010101" d="M241.844,245.096c-31.238,0.188-62.479,0.086-93.721,0.086c-30.649,0-61.301,0.123-91.951-0.104
		l-0.106-16.438c62.48,0.069,123.297,0.039,185.778,0"/>
	<path fill="#010101" d="M241.872,285.096c-31.239,0.188-62.479,0.086-93.721,0.086c-30.649,0-61.301,0.123-91.951-0.104
		l-0.106-16.438c62.48,0.069,123.296,0.039,185.778,0"/>
	<path fill="#010101" d="M241.872,324.764c-31.239,0.188-62.479,0.086-93.721,0.086c-30.649,0-61.301,0.121-91.951-0.104
		l-0.106-16.437c62.48,0.068,123.296,0.039,185.778,0"/>
	<g>
		<path d="M53.907,176.782V130h8.997l15.867,35.496L94.31,130h8.669v46.782h-8.015v-32.584l-12.693,32.584h-7.394l-12.955-32.584
			v32.584H53.907z"/>
		<path d="M144.822,130v7.459h-23.424v11.777h22.312v7.753H121.3v12.268h23.98v7.524h-32.486V130H144.822z"/>
		<path d="M153.295,176.782V130h8.669l24.7,34.089V130h8.343v46.782h-8.67l-24.698-34.809v34.809H153.295z"/>
		<path d="M204.82,158.396V130h8.67v28.396c0,7.459,3.816,11.188,11.451,11.188c7.633,0,11.449-3.729,11.449-11.188V130h8.67v28.396
			c0,12.476-6.707,18.713-20.119,18.713C211.527,177.109,204.82,170.872,204.82,158.396z"/>
	</g>
</g>
</svg>
