<?xml version="1.0" encoding="utf-8"?>
<!-- Generator: Adobe Illustrator 16.0.0, SVG Export Plug-In . SVG Version: 6.00 Build 0)  -->
<!DOCTYPE svg PUBLIC "-//W3C//DTD SVG 1.1//EN" "http://www.w3.org/Graphics/SVG/1.1/DTD/svg11.dtd">
<svg version="1.1" id="Слой_1" xmlns="http://www.w3.org/2000/svg" xmlns:xlink="http://www.w3.org/1999/xlink" x="0px" y="0px"
	 width="419.979px" height="435.085px" viewBox="34.101 0 419.979 435.085" enable-background="new 34.101 0 419.979 435.085"
	 xml:space="preserve">
<g id="Слой_2">
	<path id="XMLID_1_" fill="none" stroke="#000000" stroke-width="19" stroke-miterlimit="10" d="M215.46,228.19
		c0,0,27.323,57.981,43.53,67.76l48.973-22.648c0,0,19.025-8.291,28.961,10.992l36.971,79.94c0,0,3.076,20.932-11.879,27.594
		l-38.924,18.004c0,0-62.002,13.688-123.597-67.313c0,0-30.639-33.841-52.675-82.584"/>
	<path id="XMLID_4_" fill="none" stroke="#000000" stroke-width="19" stroke-miterlimit="10" d="M217.396,232.375
		c0,0-26.489-58.371-23.75-77.166l48.969-22.646c0,0,18.641-9.13,10.381-29.188l-37.28-80.054c0,0-13.957-15.898-28.719-8.817
		l-38.924,18.002c0,0-50.583,38.382-28.442,137.883c0,0,5.946,45.262,29.124,93.73"/>
</g>
</svg>
