<?xml version="1.0" encoding="UTF-8"?><!DOCTYPE svg PUBLIC "-//W3C//DTD SVG 1.1//EN" "http://www.w3.org/Graphics/SVG/1.1/DTD/svg11.dtd"><svg xmlns="http://www.w3.org/2000/svg" xmlns:xlink="http://www.w3.org/1999/xlink"><symbol id="facebook" viewBox="0 0 512 512"><style type="text/css">
	.st0{fill:#3C5A99;}
</style><path class="st0" d="M276.1,462V343.9h39.7l5.9-46h-45.6v-29.4c0-13.3,3.7-22.4,22.8-22.4l24.4,0v-41.2  c-4.2-0.6-18.7-1.8-35.5-1.8c-35.2,0-59.2,21.5-59.2,60.9v34h-39.8v46h39.8V462H276.1z" id="f"/></symbol><symbol id="googleplus" viewBox="0 0 512 512"><g id="XMLID_246_"><g id="XMLID_30_"><path d="M181.6,306.9v51.3c0,0,49.7-0.1,70-0.1c-11,33.2-28,51.3-70,51.3c-42.5,0-75.6-34.4-75.6-76.9    s33.2-76.9,75.6-76.9c22.5,0,37,7.9,50.3,18.9c10.7-10.7,9.8-12.2,36.9-37.8c-23-20.9-53.6-33.7-87.1-33.7    c-71.5,0-129.5,58-129.5,129.5S110.2,462,181.7,462c106.9,0,133-93.1,124.3-155.1C280.7,306.9,181.6,306.9,181.6,306.9z     M415,309.4v-44.9h-32v44.9h-46.1v32H383v46.1h32v-46.1h44.9v-32H415z" id="XMLID_31_"/></g></g></symbol><symbol id="twitter" viewBox="0 0 512 512"><path d="M196.9,462C317.2,462,383,362.3,383,275.9c0-2.8,0-5.6-0.2-8.5c12.8-9.3,23.8-20.7,32.6-33.9  c-11.9,5.3-24.6,8.8-37.6,10.3c13.7-8.2,23.9-21,28.8-36.2c-12.8,7.6-26.9,13-41.5,15.9c-24.8-26.3-66.2-27.6-92.5-2.8  c-17,16-24.2,39.8-18.9,62.5c-52.6-2.6-101.6-27.5-134.8-68.3c-17.4,29.9-8.5,68.1,20.2,87.3c-10.4-0.3-20.6-3.1-29.7-8.2  c0,0.3,0,0.5,0,0.8c0,31.1,22,57.9,52.5,64.1c-9.6,2.6-19.7,3-29.5,1.1c8.6,26.6,33.1,44.9,61.1,45.4  c-23.2,18.2-51.8,28.1-81.2,28.1c-5.2,0-10.4-0.3-15.6-0.9C126.5,451.8,161.3,462,196.9,462" id="XMLID_22_"/></symbol></svg>